<?xml version="1.0" standalone="no"?><!DOCTYPE svg PUBLIC "-//W3C//DTD SVG 1.1//EN" "http://www.w3.org/Graphics/SVG/1.1/DTD/svg11.dtd"><svg t="1681700338783" class="icon" viewBox="0 0 1024 1024" version="1.1" xmlns="http://www.w3.org/2000/svg" p-id="1285" xmlns:xlink="http://www.w3.org/1999/xlink" width="200" height="200"><path d="M870.4 99.84l-102.656 103.168-86.016-85.504-86.016 85.504-86.016-86.016-85.504 85.504-85.504-85.504-85.504 86.016L153.6 101.888v455.936c0 198.4 159.232 359.68 357.376 359.68S870.4 756.224 870.4 557.824V99.84z" fill="#FFFFFF" p-id="1286"></path><path d="M185.6 620.288c8.448 43.008 25.344 83.2 49.92 120.32 15.104-26.368 44.8-58.368 103.424-72.448-4.352-15.104-8.448-30.976-11.776-47.616l-141.568-0.256zM258.816 771.328c63.232 74.24 154.624 116.736 250.368 117.504-9.216-4.608-17.664-9.728-26.624-15.36-40.704-26.368-96.768-77.568-132.864-172.544-56.576 12.544-80.896 44.8-90.88 70.4M385.28 696.32c25.856 64.512 64.512 114.176 115.2 147.456 33.536 22.016 66.048 31.744 87.04 36.608 53.248-12.032 102.912-37.888 144.128-74.24-32.256-3.584-66.048-22.016-100.608-41.728-55.04-30.72-123.136-68.864-215.296-68.864-9.984-0.512-20.224-0.256-30.464 0.768" fill="#63717A" p-id="1287"></path><path d="M523.52 452.352h-118.272v141.056h49.152v-113.408H491.52v113.408h46.848v-121.088c0-10.496-6.656-19.968-14.848-19.968M558.848 452.352V573.44c0 10.752 6.656 19.968 14.592 19.968h118.528v-86.016h-47.104v57.6h-36.864v-86.016h84.224v-27.136l-133.376 0.512zM273.92 452.352l-26.624 57.344h-15.36v-57.344H182.784v141.312h49.152v-56.832h15.36l26.624 56.832h49.152l-34.304-70.144 34.304-71.168zM335.872 452.352H386.56v141.056h-50.688zM841.216 490.752v-38.144h-130.048V517.12c0 10.752 6.656 19.456 14.592 19.456h66.304v30.72h-81.152V593.92h130.048v-64.768c0-9.984-5.632-19.456-12.8-19.456h-68.352v-29.696h34.304v10.752h47.104zM702.72 309.504h-41.216l85.248-85.76L681.984 158.72l-86.016 85.76L510.208 158.72l-150.272 150.784h-41.728l85.76-86.016L339.2 158.72 253.696 244.48 182.784 174.08V426.752h658.432V171.008z" fill="#592D81" p-id="1288"></path><path d="M326.656 399.616c0 3.584 2.816 6.656 6.656 6.656h36.608v-9.728h-30.208v-32h30.208v-9.984h-43.52v45.056h0.256zM266.24 354.304v51.968h13.312v-13.568h16.896v13.568h13.312v-45.568c0-3.84-3.072-6.656-7.424-6.656h-35.84v0.256z m29.952 28.416h-16.896v-18.688h16.896v18.688zM809.728 354.304h-30.464c-3.584 0-6.656 2.816-6.656 6.656v38.656c0 3.584 2.816 6.656 6.656 6.656h30.464c3.584 0 6.656-3.072 6.656-6.656V360.96c0.512-3.84-2.56-6.656-6.656-6.656m-6.4 41.728h-16.64v-32h16.64v32zM205.824 378.624c0 3.584 2.816 6.656 6.656 6.656h23.552v11.264H205.824v9.984h43.52v-24.576c0-3.328-2.304-6.4-6.144-6.656h-24.32v-11.264h30.208v-9.984H205.824v24.576zM483.072 354.304h-36.864v51.968h13.312v-13.568h16.896v13.568h13.312v-45.568c0.256-3.584-3.072-6.4-6.656-6.4m-6.912 28.416h-16.896v-18.688h16.896v18.688zM714.24 364.032h15.36v42.24h13.056v-42.24h15.104v-9.728h-43.52zM574.72 354.304h-67.072v51.968h13.312v-41.984h16.64v41.984h13.568v-41.984h16.64v41.984h13.312v-45.568c0-3.584-2.816-6.4-6.4-6.4M694.016 354.304h-37.12v51.968h13.312v-41.984h16.896v41.984h13.312v-45.568c0.256-3.584-2.56-6.4-6.4-6.4M599.552 399.616c0 3.584 2.816 6.656 6.656 6.656h36.864v-9.728h-30.208v-11.264h30.208v-9.984h-30.208v-11.52h30.208v-9.728h-43.52v45.568zM422.144 387.072h7.168v-26.624c0-3.84-3.072-6.656-7.424-6.656h-36.352v51.968h13.312v-18.944h9.728l8.192 18.944h12.8l-7.424-18.688z m-5.888-9.984H399.36v-13.312h16.896v13.312z" fill="#FFFFFF" p-id="1289"></path><path d="M408.064 660.224c69.888-1.28 139.776 16.384 228.096 66.56 65.536 37.12 94.208 48.384 113.92 43.776 17.92-4.352 35.072-15.36 64.512-77.568 11.264-24.064 19.456-51.968 23.04-72.704H361.984c3.328 14.592 6.656 28.928 11.008 41.728 11.264-1.024 23.552-1.792 35.072-1.792" fill="#63717A" p-id="1290"></path></svg>